<svg width="176" height="48" viewBox="0 0 176 48" fill="none" xmlns="http://www.w3.org/2000/svg">
<rect x="0.5" y="8.5" width="63" height="31" rx="15.5" fill="#59B2FF"/>
<rect x="0.5" y="8.5" width="63" height="31" rx="15.5" stroke="#363B40"/>
<circle cx="48" cy="24" r="12" fill="#F9F9F9"/>
<path d="M81.6396 20.3877C81.0882 20.3877 80.5915 20.4834 80.1494 20.6748C79.7119 20.8617 79.3382 21.1351 79.0283 21.4951C78.723 21.8506 78.4883 22.2812 78.3242 22.7871C78.1602 23.293 78.0781 23.8626 78.0781 24.4961C78.0781 25.3346 78.208 26.0638 78.4678 26.6836C78.7321 27.2988 79.124 27.7751 79.6436 28.1123C80.1676 28.4495 80.8216 28.6182 81.6055 28.6182C82.0521 28.6182 82.4714 28.5817 82.8633 28.5088C83.2598 28.4313 83.6449 28.3356 84.0186 28.2217V29.2334C83.654 29.3701 83.2712 29.4704 82.8701 29.5342C82.4691 29.6025 81.9928 29.6367 81.4414 29.6367C80.4251 29.6367 79.5752 29.4271 78.8916 29.0078C78.2126 28.584 77.7021 27.987 77.3604 27.2168C77.0231 26.4466 76.8545 25.5374 76.8545 24.4893C76.8545 23.7327 76.9593 23.0423 77.1689 22.418C77.3831 21.7891 77.693 21.2467 78.0986 20.791C78.5088 20.3353 79.0101 19.9844 79.6025 19.7383C80.1995 19.4876 80.8831 19.3623 81.6533 19.3623C82.1592 19.3623 82.6468 19.4124 83.1162 19.5127C83.5856 19.613 84.0094 19.7565 84.3877 19.9434L83.9229 20.9277C83.6038 20.7819 83.2529 20.6566 82.8701 20.5518C82.4919 20.4424 82.0817 20.3877 81.6396 20.3877ZM87.1562 29.5H86.0146V18.8633H87.1562V29.5ZM92.3584 21.8848C93.2516 21.8848 93.9147 22.0853 94.3477 22.4863C94.7806 22.8874 94.9971 23.5277 94.9971 24.4072V29.5H94.1699L93.9512 28.3926H93.8965C93.6868 28.666 93.4681 28.8962 93.2402 29.083C93.0124 29.2653 92.748 29.4043 92.4473 29.5C92.151 29.5911 91.7865 29.6367 91.3535 29.6367C90.8978 29.6367 90.4922 29.557 90.1367 29.3975C89.7858 29.238 89.5078 28.9964 89.3027 28.6729C89.1022 28.3493 89.002 27.9391 89.002 27.4424C89.002 26.695 89.2982 26.1208 89.8906 25.7197C90.4831 25.3187 91.3854 25.0999 92.5977 25.0635L93.8896 25.0088V24.5508C93.8896 23.9036 93.7507 23.4502 93.4727 23.1904C93.1947 22.9307 92.8027 22.8008 92.2969 22.8008C91.9049 22.8008 91.5312 22.8577 91.1758 22.9717C90.8203 23.0856 90.4831 23.2201 90.1641 23.375L89.8154 22.5137C90.1527 22.3405 90.54 22.1924 90.9775 22.0693C91.415 21.9463 91.8753 21.8848 92.3584 21.8848ZM93.876 25.8086L92.7344 25.8564C91.8001 25.8929 91.1416 26.0456 90.7588 26.3145C90.376 26.5833 90.1846 26.9639 90.1846 27.4561C90.1846 27.8844 90.3145 28.2012 90.5742 28.4062C90.834 28.6113 91.1781 28.7139 91.6064 28.7139C92.2718 28.7139 92.8164 28.5293 93.2402 28.1602C93.6641 27.791 93.876 27.2373 93.876 26.499V25.8086ZM100.739 21.8711C100.89 21.8711 101.047 21.8802 101.211 21.8984C101.375 21.9121 101.521 21.9326 101.648 21.96L101.505 23.0127C101.382 22.9808 101.245 22.9557 101.095 22.9375C100.944 22.9193 100.803 22.9102 100.671 22.9102C100.37 22.9102 100.085 22.9717 99.8164 23.0947C99.5521 23.2132 99.3197 23.3864 99.1191 23.6143C98.9186 23.8376 98.7614 24.1087 98.6475 24.4277C98.5335 24.7422 98.4766 25.0931 98.4766 25.4805V29.5H97.335V22.0078H98.2783L98.4014 23.3887H98.4492C98.6042 23.1107 98.791 22.8577 99.0098 22.6299C99.2285 22.3975 99.4814 22.2129 99.7686 22.0762C100.06 21.9395 100.384 21.8711 100.739 21.8711ZM109.523 25.7402C109.523 26.3555 109.444 26.9046 109.284 27.3877C109.125 27.8708 108.895 28.2786 108.594 28.6113C108.293 28.944 107.928 29.1992 107.5 29.377C107.076 29.5501 106.595 29.6367 106.058 29.6367C105.556 29.6367 105.096 29.5501 104.677 29.377C104.262 29.1992 103.902 28.944 103.597 28.6113C103.296 28.2786 103.061 27.8708 102.893 27.3877C102.729 26.9046 102.646 26.3555 102.646 25.7402C102.646 24.9199 102.785 24.2227 103.063 23.6484C103.341 23.0697 103.738 22.6299 104.253 22.3291C104.772 22.0238 105.39 21.8711 106.105 21.8711C106.789 21.8711 107.386 22.0238 107.896 22.3291C108.411 22.6344 108.81 23.0765 109.093 23.6553C109.38 24.2295 109.523 24.9245 109.523 25.7402ZM103.822 25.7402C103.822 26.3418 103.902 26.8636 104.062 27.3057C104.221 27.7477 104.467 28.0895 104.8 28.3311C105.132 28.5726 105.561 28.6934 106.085 28.6934C106.604 28.6934 107.031 28.5726 107.363 28.3311C107.701 28.0895 107.949 27.7477 108.108 27.3057C108.268 26.8636 108.348 26.3418 108.348 25.7402C108.348 25.1432 108.268 24.6283 108.108 24.1953C107.949 23.7578 107.703 23.4206 107.37 23.1836C107.037 22.9466 106.607 22.8281 106.078 22.8281C105.299 22.8281 104.727 23.0856 104.362 23.6006C104.002 24.1156 103.822 24.8288 103.822 25.7402Z" fill="#F9F9F9"/>
</svg>
