<svg width="176" height="48" viewBox="0 0 176 48" fill="none" xmlns="http://www.w3.org/2000/svg">
<rect x="0.5" y="8.5" width="63" height="31" rx="15.5" fill="#1C1F21"/>
<rect x="0.5" y="8.5" width="63" height="31" rx="15.5" stroke="#363B40"/>
<circle cx="16" cy="24" r="12" fill="#363B40"/>
<path d="M82.9316 29.5H77.3672V19.5059H82.9316V20.5312H78.5293V23.7646H82.6787V24.7764H78.5293V28.4746H82.9316V29.5ZM89.8223 27.4492C89.8223 27.9277 89.7015 28.3311 89.46 28.6592C89.223 28.9827 88.8812 29.2266 88.4346 29.3906C87.9925 29.5547 87.4639 29.6367 86.8486 29.6367C86.3245 29.6367 85.8711 29.5957 85.4883 29.5137C85.1055 29.4316 84.7705 29.3154 84.4834 29.165V28.1191C84.7887 28.2695 85.1533 28.4062 85.5771 28.5293C86.001 28.6523 86.4339 28.7139 86.876 28.7139C87.5231 28.7139 87.9925 28.609 88.2842 28.3994C88.5758 28.1898 88.7217 27.9049 88.7217 27.5449C88.7217 27.3398 88.6624 27.1598 88.5439 27.0049C88.43 26.8454 88.2363 26.6927 87.9629 26.5469C87.6895 26.3965 87.3112 26.2324 86.8281 26.0547C86.3496 25.8724 85.9349 25.6924 85.584 25.5146C85.2376 25.3324 84.9688 25.1113 84.7773 24.8516C84.5905 24.5918 84.4971 24.2546 84.4971 23.8398C84.4971 23.2064 84.7523 22.721 85.2627 22.3838C85.7777 22.042 86.4521 21.8711 87.2861 21.8711C87.7373 21.8711 88.1589 21.9167 88.5508 22.0078C88.9473 22.0944 89.3164 22.2129 89.6582 22.3633L89.2754 23.2725C88.9655 23.1403 88.6351 23.0286 88.2842 22.9375C87.9333 22.8464 87.5755 22.8008 87.2109 22.8008C86.6868 22.8008 86.2835 22.8874 86.001 23.0605C85.723 23.2337 85.584 23.4707 85.584 23.7715C85.584 24.0039 85.6478 24.1953 85.7754 24.3457C85.9076 24.4961 86.1172 24.6374 86.4043 24.7695C86.6914 24.9017 87.0697 25.0566 87.5391 25.2344C88.0085 25.4076 88.4141 25.5876 88.7559 25.7744C89.0977 25.9567 89.3597 26.18 89.542 26.4443C89.7288 26.7041 89.8223 27.0391 89.8223 27.4492ZM94.6484 29.6367C93.974 29.6367 93.3792 29.4977 92.8643 29.2197C92.3493 28.9417 91.9482 28.5179 91.6611 27.9482C91.374 27.3786 91.2305 26.6608 91.2305 25.7949C91.2305 24.888 91.3809 24.1475 91.6816 23.5732C91.987 22.9945 92.4062 22.5661 92.9395 22.2881C93.4727 22.0101 94.0788 21.8711 94.7578 21.8711C95.1315 21.8711 95.4915 21.9098 95.8379 21.9873C96.1888 22.0602 96.4759 22.1536 96.6992 22.2676L96.3574 23.2178C96.1296 23.1266 95.8652 23.0446 95.5645 22.9717C95.2682 22.8988 94.9902 22.8623 94.7305 22.8623C94.2109 22.8623 93.778 22.974 93.4316 23.1973C93.0898 23.4206 92.8324 23.7487 92.6592 24.1816C92.4906 24.6146 92.4062 25.1478 92.4062 25.7812C92.4062 26.3874 92.4883 26.9046 92.6523 27.333C92.821 27.7614 93.0693 28.0895 93.3975 28.3174C93.7301 28.5407 94.1449 28.6523 94.6416 28.6523C95.0381 28.6523 95.3958 28.6113 95.7148 28.5293C96.0339 28.4427 96.3232 28.3424 96.583 28.2285V29.2402C96.3324 29.3678 96.0521 29.4658 95.7422 29.5342C95.4368 29.6025 95.0723 29.6367 94.6484 29.6367ZM104.547 22.0078V29.5H103.617L103.453 28.4473H103.392C103.237 28.707 103.036 28.9258 102.79 29.1035C102.544 29.2812 102.266 29.4134 101.956 29.5C101.651 29.5911 101.325 29.6367 100.979 29.6367C100.386 29.6367 99.8893 29.541 99.4883 29.3496C99.0872 29.1582 98.7842 28.862 98.5791 28.4609C98.3786 28.0599 98.2783 27.5449 98.2783 26.916V22.0078H99.4268V26.834C99.4268 27.4583 99.568 27.9255 99.8506 28.2354C100.133 28.5407 100.564 28.6934 101.143 28.6934C101.699 28.6934 102.141 28.5885 102.469 28.3789C102.801 28.1693 103.041 27.8617 103.187 27.4561C103.332 27.0459 103.405 26.5446 103.405 25.9521V22.0078H104.547ZM110.351 21.8711C110.501 21.8711 110.658 21.8802 110.822 21.8984C110.986 21.9121 111.132 21.9326 111.26 21.96L111.116 23.0127C110.993 22.9808 110.856 22.9557 110.706 22.9375C110.556 22.9193 110.414 22.9102 110.282 22.9102C109.981 22.9102 109.697 22.9717 109.428 23.0947C109.163 23.2132 108.931 23.3864 108.73 23.6143C108.53 23.8376 108.373 24.1087 108.259 24.4277C108.145 24.7422 108.088 25.0931 108.088 25.4805V29.5H106.946V22.0078H107.89L108.013 23.3887H108.061C108.215 23.1107 108.402 22.8577 108.621 22.6299C108.84 22.3975 109.093 22.2129 109.38 22.0762C109.672 21.9395 109.995 21.8711 110.351 21.8711ZM119.135 25.7402C119.135 26.3555 119.055 26.9046 118.896 27.3877C118.736 27.8708 118.506 28.2786 118.205 28.6113C117.904 28.944 117.54 29.1992 117.111 29.377C116.688 29.5501 116.207 29.6367 115.669 29.6367C115.168 29.6367 114.707 29.5501 114.288 29.377C113.873 29.1992 113.513 28.944 113.208 28.6113C112.907 28.2786 112.673 27.8708 112.504 27.3877C112.34 26.9046 112.258 26.3555 112.258 25.7402C112.258 24.9199 112.397 24.2227 112.675 23.6484C112.953 23.0697 113.349 22.6299 113.864 22.3291C114.384 22.0238 115.001 21.8711 115.717 21.8711C116.4 21.8711 116.997 22.0238 117.508 22.3291C118.023 22.6344 118.422 23.0765 118.704 23.6553C118.991 24.2295 119.135 24.9245 119.135 25.7402ZM113.434 25.7402C113.434 26.3418 113.513 26.8636 113.673 27.3057C113.832 27.7477 114.078 28.0895 114.411 28.3311C114.744 28.5726 115.172 28.6934 115.696 28.6934C116.216 28.6934 116.642 28.5726 116.975 28.3311C117.312 28.0895 117.56 27.7477 117.72 27.3057C117.879 26.8636 117.959 26.3418 117.959 25.7402C117.959 25.1432 117.879 24.6283 117.72 24.1953C117.56 23.7578 117.314 23.4206 116.981 23.1836C116.649 22.9466 116.218 22.8281 115.689 22.8281C114.91 22.8281 114.338 23.0856 113.974 23.6006C113.614 24.1156 113.434 24.8288 113.434 25.7402Z" fill="#F9F9F9"/>
</svg>
